# xmcd
#
# Track frame offsets:
#	150
#	14300
#	32912
#	50532
#	63267
#	81054
#	109792
#	121127
#	140817
#	157675
#	175800
#	191590
#	209497
#	227835
#	243152
#	256152
#	273962
#	288492
#
# Disc length: 4087 seconds
#
# Revision: 3
# Processed by: cddbd v1.5.1PL0 Copyright (c) Steve Scherf et al.
# Submitted via: audiograbber 1.83.01
#
DISCID=f60ff512
DTITLE=The Blues Band - Wire Less
DYEAR=1995
DGENRE=Blues
TTITLE0=San Francisco Bay Blues
TTITLE1=T. Nicey Mama
TTITLE2=Sittin' On Top Of The World
TTITLE3=Room And Board
TTITLE4=D-Day Blues
TTITLE5=I Can't Stand The Rain
TTITLE6=Withering The Picks
TTITLE7=Sweet Temptation
TTITLE8=Stealin' Stealin'
TTITLE9=Stranger Blues
TTITLE10=Jitterbug Swing
TTITLE11=Told No Lies
TTITLE12=Alimony Blues
TTITLE13=Key To The Highway
TTITLE14=Frankie Jean
TTITLE15=I'm Not Ashamed To Sing The Blues
TTITLE16=They're Crazy About Me
TTITLE17=Too Young To Know
EXTD=Cobalt COBCD1, 1995
EXTT0=
EXTT1=
EXTT2=
EXTT3=
EXTT4=
EXTT5=
EXTT6=
EXTT7=
EXTT8=
EXTT9=
EXTT10=
EXTT11=
EXTT12=
EXTT13=
EXTT14=
EXTT15=
EXTT16=
EXTT17=
PLAYORDER=
